<svg width="181" height="171" viewBox="0 0 181 171" fill="none" xmlns="http://www.w3.org/2000/svg">
<path d="M134.149 2.38486C134.009 2.34486 133.929 2.20486 133.959 2.06486V2.05486C133.999 1.85486 134.179 1.72486 134.379 1.75486C141.629 2.76486 147.629 3.69486 152.369 4.56486C160.569 6.05486 168.019 4.56486 174.729 0.0748628C175.049 -0.135137 175.469 0.124863 175.419 0.504863C174.529 7.67486 174.389 14.8349 175.019 21.9649C176.109 34.3049 177.659 47.3549 179.669 61.1149C179.699 61.3049 179.579 61.4949 179.389 61.5449C179.199 61.5949 178.999 61.4849 178.929 61.3049C175.349 51.7549 170.739 41.9549 165.099 31.9249C158.119 19.4949 148.089 6.53486 134.149 2.38486Z" fill="#D9B99B"/>
<path d="M119.659 1.12486C119.799 1.12486 119.919 1.24486 119.909 1.39486C119.909 1.46486 119.849 1.52486 119.779 1.53486C111.409 1.72486 105.329 4.84486 101.539 10.9149C94.5094 22.1449 100.199 36.6749 108.489 45.3349C123.989 61.5349 142.249 71.0049 159.719 87.8249C172.279 99.9149 181.879 115.395 180.439 133.475C179.019 151.375 169.329 163.035 151.369 168.445C148.099 169.435 142.949 170.145 135.939 170.595C135.819 170.605 135.709 170.545 135.649 170.445L135.439 170.085C135.349 169.915 135.449 169.705 135.639 169.685C150.219 167.925 156.419 157.895 155.009 143.925C153.529 129.335 141.219 118.235 130.639 109.355C128.059 107.195 124.319 104.315 119.409 100.705C98.6894 85.5049 71.8294 65.5749 74.4294 36.0549C75.5994 22.8449 81.9194 13.1849 93.3894 7.07486C101.429 2.78486 110.189 0.804864 119.659 1.12486Z" fill="#D9B99B"/>
<path d="M123.949 169.415C124.159 169.485 124.119 169.785 123.909 169.805C104.899 171.685 85.9094 170.385 69.9894 159.895C53.5394 149.055 45.6894 130.095 37.8994 112.155C34.7594 104.925 30.8694 96.9349 24.8094 92.2049C19.3794 87.9549 11.0194 87.6849 5.1094 90.7449C4.1694 91.2349 2.5594 92.1049 0.279397 93.3649C0.199397 93.4149 0.0893969 93.3849 0.0393969 93.3149C-0.0206031 93.2349 -0.0106026 93.1249 0.0593974 93.0649C10.9494 83.1549 25.4194 77.3149 40.0794 79.6649C54.5294 81.9849 63.9894 94.9849 70.4094 106.905C73.7394 113.085 77.2894 120.285 81.0794 128.495C86.3494 139.915 92.1694 151.275 101.019 159.975C105.939 164.815 114.079 169.315 121.289 169.095C122.319 169.065 123.199 169.175 123.949 169.415Z" fill="#D9B99B"/>
</svg>
